<svg width="1920" height="1036" viewBox="0 0 1920 1036" fill="none" xmlns="http://www.w3.org/2000/svg">
<path d="M2928.15 928.763C2914.62 862.845 2894.55 799.102 2868.37 738.893C2859.42 718.214 2848.55 696.361 2826.21 683.013C2803.88 669.666 2775.66 667.974 2748.22 669.619C2739.98 652.606 2732.09 635.452 2723.41 618.345C2716.31 604.246 2709.32 590.147 2702.81 575.765C2699.47 568.387 2696.25 560.914 2693.19 553.442C2690.99 548.084 2688.64 535.723 2684.87 531.917C2693.2 540.25 2702.81 546.541 2713.17 550.434C2690.05 497.374 2669.99 452.585 2658.84 397.316C2664.48 405.916 2672.2 412.219 2680.94 415.363C2669.89 393.331 2661.94 369.278 2657.39 344.162C2658.28 347.637 2660.08 350.681 2662.51 352.853C2664.95 355.025 2667.9 356.211 2670.93 356.24C2651.31 299.844 2630.58 227.045 2630.23 219.008C2632.29 221.344 2634.84 222.968 2637.61 223.708C2631.62 216.786 2627 208.336 2624.11 198.987C2628.03 203.264 2629.37 207.024 2633.65 207.024C2621.05 166.747 2618.96 150.627 2616.41 126.705C2619.04 129.619 2619.83 130.888 2621.48 130.888C2614.34 112.303 2609.07 92.7728 2605.78 72.705C2607.9 77.0288 2608.21 74.5849 2610.29 76.8408C2603.85 61.1437 2596.12 15.5091 2596.12 0C2594.16 21.8068 2590.08 45.4465 2580.42 64.5275C2583.35 62.3515 2585.79 59.3503 2587.52 55.7859C2576.85 115.99 2575.32 166.324 2545.72 210.36L2556.55 206.413C2554.88 217.324 2551.7 227.823 2547.13 237.478L2558.05 231.415C2546.04 273.102 2539.21 292.136 2516.68 328.841C2524.04 325.469 2530.61 319.982 2535.79 312.862L2514.48 360.611C2523.82 360.329 2527.82 356.569 2535.12 350.084C2522.29 395.718 2500.74 455.922 2479.47 496.293C2486.49 495.892 2493.18 492.568 2498.38 486.893C2494.87 498.735 2490.23 510.057 2484.57 520.637C2476.76 498.431 2470.49 475.498 2465.81 452.068C2471.33 460.967 2479.07 467.547 2487.9 470.867C2476.83 448.046 2468.87 423.246 2464.35 397.41C2465.2 400.947 2466.97 404.066 2469.41 406.308C2471.85 408.549 2474.82 409.796 2477.89 409.864C2458.27 351.682 2437.54 276.486 2437.19 268.214C2439.22 270.67 2441.77 272.41 2444.57 273.243C2438.55 266.035 2433.94 257.32 2431.07 247.723C2434.99 252.094 2436.33 255.995 2440.61 255.995C2428.01 214.402 2425.93 197.577 2423.37 173.092C2426.04 176.099 2426.79 177.415 2428.44 177.415C2421.41 155.749 2417.72 146.867 2412.74 117.353C2414.86 121.817 2415.21 119.279 2417.25 121.629C2410.81 105.462 2403.08 58.3708 2403.08 42.2977C2401.12 64.8564 2397.04 89.2951 2387.38 108.893C2390.34 106.632 2392.8 103.533 2394.52 99.8695C2383.81 162.047 2382.28 213.979 2352.68 259.661L2363.56 255.619C2361.85 266.84 2358.66 277.662 2354.1 287.671L2365.05 281.421C2353 324.423 2346.17 344.068 2323.64 381.948C2331.06 378.448 2337.63 372.777 2342.75 365.452L2321.44 414.799C2330.78 414.47 2334.78 410.616 2342.08 403.896C2331.13 443.775 2317.83 482.676 2302.28 520.308C2292.78 482.71 2285.13 446.71 2285.21 441.776C2286.74 443.829 2288.71 445.354 2290.9 446.193C2286.42 440.197 2283.11 433.086 2281.21 425.374C2284.11 429.039 2285.13 432.188 2288.51 432.517C2282.58 411.262 2279.2 389.111 2278.46 366.721C2280.42 369.259 2281.01 370.34 2282.38 370.481C2277.56 355.05 2274.28 338.991 2272.61 322.637C2274.1 326.256 2274.49 324.329 2276.02 326.303C2271.59 313.238 2267.55 276.063 2268.17 263.562C2265.54 280.951 2261.15 299.609 2252.47 314.178C2254.94 312.646 2257.05 310.42 2258.64 307.692C2247.17 355.253 2243.56 395.53 2217.74 428.663L2226.65 426.313C2224.77 434.946 2221.71 443.143 2217.58 450.564L2226.65 446.522C2214.87 479.045 2208.63 493.849 2188.77 521.718C2194.85 519.577 2200.4 515.652 2204.9 510.298C2198.46 522.58 2192 534.846 2185.51 547.097C2193.05 547.567 2196.42 544.841 2202.62 540.141C2191.64 571.381 2178.69 601.577 2163.88 630.47C2154.23 604.387 2145.98 578.397 2145.79 574.872C2147.15 576.197 2148.75 577.115 2150.46 577.551C2146.76 573.867 2143.83 569.2 2141.9 563.922C2144.34 566.272 2145.24 568.34 2147.95 568.34C2142.37 554.421 2138.7 539.521 2137.07 524.209C2138.72 525.807 2139.23 526.512 2140.25 526.512C2135.81 516.407 2132.5 505.646 2130.4 494.507C2131.77 496.904 2131.97 495.541 2133.27 496.81C2128.39 483.382 2125.37 469.097 2124.32 454.512C2123.43 467.127 2119.98 479.291 2114.27 489.948C2116.08 488.857 2117.63 487.241 2118.78 485.248C2112.03 518.381 2110.93 546.016 2092.37 570.22L2099.2 568.058C2098.12 574.156 2096.09 579.959 2093.23 585.165L2100.14 581.828C2094.5 601.582 2085.61 619.782 2074 635.358C2078.54 633.597 2082.68 630.587 2086.09 626.57L2072.58 652.841C2077.36 652.729 2081.96 650.693 2085.65 647.06C2078.42 669.186 2069.67 690.564 2059.51 710.977C2054.4 699.786 2050 688.144 2046.36 676.152C2047.77 677.298 2049.36 678.068 2051.03 678.408C2047.46 675.52 2044.52 671.633 2042.48 667.081C2044.91 669.055 2045.81 670.747 2048.52 670.747C2043.02 659.431 2039.33 646.982 2037.65 634.042C2039.3 635.358 2039.81 635.969 2040.83 635.969C2036.45 627.746 2033.13 618.778 2030.98 609.368C2032.31 611.342 2032.55 610.214 2033.84 611.248C2029.02 600.333 2025.99 588.418 2024.89 576.141C2023.92 586.897 2020.43 597.108 2014.84 605.609C2016.58 604.706 2018.13 603.34 2019.36 601.614C2012.61 629.154 2011.51 652.136 1992.94 672.11L1999.77 670.324C1998.64 675.477 1996.61 680.283 1993.81 684.423L2000.71 681.698C1994.77 698.607 1985.85 713.786 1974.57 726.204C1978.99 724.829 1983.11 722.346 1986.66 718.919C1982.15 726.157 1977.67 733.442 1973.16 740.726C1977.8 740.698 1982.34 739.066 1986.23 736.026C1980.77 750.126 1972.85 762.58 1967.43 776.491C1963.5 786.361 1960.52 799.99 1950.43 803.045L1965.66 798.11C1961.41 804.664 1956.61 810.679 1951.34 816.063C1954.4 815.815 1957.35 814.599 1959.89 812.538C1955.96 820.357 1950.15 826.567 1943.21 830.35C1945.26 826.89 1946.36 822.75 1946.35 818.507L1936.69 833.029C1938.57 828.308 1939.26 823.03 1938.66 817.849C1936.77 824.889 1932.66 830.762 1927.2 834.204C1928.64 830.552 1929.33 826.542 1929.22 822.505C1929.11 818.468 1928.2 814.52 1926.57 810.987C1925.85 819.55 1923.13 827.696 1918.72 834.486C1919.34 830.585 1919.5 826.597 1919.19 822.643L1911.34 836.742C1910.46 832.471 1910.17 828.059 1910.48 823.677C1908.93 826.312 1907.61 829.131 1906.55 832.089L1907.06 817.99C1904.56 820.691 1902.64 824.066 1901.46 827.834C1900.27 831.602 1899.85 835.654 1900.23 839.656C1896.3 832.465 1891.75 825.322 1888.45 817.755C1886.49 813.055 1885.55 805.818 1882.72 802.058C1884.38 804.202 1886.62 805.569 1889.04 805.912C1885.32 799.081 1882.29 791.745 1880.02 784.058C1882.34 786.734 1885.39 788.319 1888.61 788.523C1878.2 766.117 1869.73 742.496 1863.33 718.026C1865.8 721.093 1869.16 722.895 1872.71 723.055C1869.44 715.41 1866.21 707.75 1863.02 700.073C1865.33 703.464 1868.31 706.112 1871.69 707.781C1863.13 693.586 1856.76 677.669 1852.89 660.784L1857.88 663.697C1855.77 659.014 1854.31 653.95 1853.56 648.705L1858.51 650.632C1845.04 629.436 1844.34 605.186 1839.51 576.188C1840.29 577.883 1841.39 579.333 1842.73 580.418C1838.57 570.764 1836.11 560.191 1835.5 549.353C1834.77 561.975 1832.61 574.418 1829.07 586.34C1830.01 585.212 1830.17 586.34 1831.15 584.319C1829.68 594.009 1827.29 603.469 1824.04 612.517C1824.79 612.517 1825.14 611.859 1826.36 610.449C1825.18 623.702 1822.54 636.709 1818.51 649.128C1820.47 649.128 1821.1 647.342 1822.87 645.275C1821.56 649.745 1819.46 653.819 1816.7 657.212C1817.98 656.808 1819.15 655.996 1820.08 654.862C1815.02 677.316 1808.84 699.383 1801.55 720.94C1802.97 720.896 1804.33 720.304 1805.44 719.254C1806.55 718.203 1807.35 716.75 1807.71 715.113C1805.65 727.152 1802.02 738.729 1796.96 749.421C1800.98 747.846 1804.5 744.806 1807.01 740.726C1801.9 767.327 1792.84 788.899 1782.32 814.418C1787.06 812.518 1791.44 809.497 1795.19 805.536C1793.46 808.728 1792.14 812.213 1791.27 815.875C1789.85 819.494 1788.4 823.066 1786.87 826.638C1783.8 834.882 1780.3 842.887 1776.39 850.606C1774.75 852.805 1772.95 854.833 1771.01 856.669C1770.58 857.092 1769.88 857.421 1769.56 856.904C1769.47 856.585 1769.47 856.236 1769.56 855.917C1769.56 853.238 1769.88 850.606 1770.07 847.974C1767.8 850.301 1765.74 852.899 1763.91 855.729C1762.06 858.531 1759.45 860.462 1756.53 861.181C1756.92 856.481 1760.46 852.157 1759.79 847.41C1756.33 853.238 1752.68 858.878 1748.8 864.235C1748.29 864.94 1747.46 865.692 1746.87 865.128C1747.71 859.88 1748.08 854.539 1747.97 849.196C1746 854.939 1743.02 860.102 1739.22 864.329C1739.75 861.206 1739.61 857.975 1738.83 854.93L1732.98 866.961C1732.47 867.995 1731.45 869.217 1730.66 868.465C1730.46 868.204 1730.31 867.889 1730.23 867.546C1730.15 867.203 1730.14 866.841 1730.19 866.491C1730.42 861.511 1731.18 856.585 1732.43 851.828C1729.99 858.119 1727.15 864.169 1723.91 869.922C1723.52 870.627 1723.01 871.379 1722.34 871.379C1721.67 871.379 1720.89 870.11 1720.65 868.982C1719.64 863.207 1719.23 857.302 1719.44 851.405C1717.4 857.719 1715.86 864.249 1714.84 870.909C1711.01 864.084 1708.72 856.179 1708.21 847.974C1707.39 856.293 1706.52 864.658 1705.7 872.977C1704.22 866.474 1703.37 859.787 1703.19 853.05C1701.43 860.883 1699.5 868.716 1697.38 876.549C1696.32 876.878 1695.81 874.951 1695.81 873.588V862.073L1689.1 877.019C1688.58 870.742 1688.83 864.409 1689.84 858.22C1685.5 863.62 1683.11 870.842 1683.17 878.335C1680.66 872.742 1678.11 867.196 1675.55 861.604C1676.41 868.217 1675.95 874.98 1674.22 881.342C1673.94 882.329 1673.47 883.457 1672.65 883.645C1671.83 883.833 1670.77 881.859 1670.69 880.309C1670.5 876.804 1670.83 873.288 1671.67 869.922C1666.74 874.007 1662.79 879.564 1660.21 886.042C1660.02 881.027 1661 876.048 1663.03 871.661C1658.2 875.982 1654.2 881.495 1651.3 887.828C1650.75 882.334 1650.9 876.774 1651.73 871.332C1647.37 875.51 1643.82 880.769 1641.33 886.747C1639.56 881.91 1638.31 876.826 1637.6 871.614C1636.78 878.054 1634.5 884.101 1631 889.097C1629.52 883.24 1629.7 876.96 1631.51 871.238C1627.94 875.134 1625.03 879.827 1622.96 885.055C1622.99 881.081 1623.4 877.123 1624.17 873.259C1620.19 878.228 1617.14 884.156 1615.22 890.648C1614 886.455 1613.69 881.959 1614.32 877.583C1612.4 881.553 1610.87 885.781 1609.77 890.178L1606.24 876.361C1606.31 878.821 1605.94 881.271 1605.14 883.543C1604.35 885.814 1603.16 887.853 1601.64 889.52C1602.01 886.402 1602.01 883.238 1601.64 880.12L1594.07 895.066C1593.17 895.066 1593.01 893.374 1593.09 892.246L1594.19 879.839C1591.26 884.364 1588.83 889.325 1586.96 894.596C1585.83 894.22 1585.51 892.387 1585.43 890.93C1585.22 887.284 1585.22 883.625 1585.43 879.979C1582.77 884.296 1580.63 889.043 1579.07 894.079L1573.03 877.865C1572.76 884.152 1571.42 890.309 1569.1 895.959C1567.93 895.959 1567.42 894.126 1567.3 892.669C1566.98 888.937 1566.83 885.188 1566.83 881.437L1555.48 896.758C1556.74 892.434 1557.84 888.016 1558.78 883.551C1554.52 888.021 1550.82 893.196 1547.79 898.919C1547.99 893.934 1548.74 889.003 1550.03 884.256C1545.96 888.703 1542.93 894.339 1541.24 900.611C1540.38 894.046 1538.88 887.624 1536.76 881.483C1536.44 885.583 1535.58 889.595 1534.21 893.374C1532.86 897.128 1530.38 900.134 1527.26 901.786C1527.88 897.971 1528.73 894.216 1529.81 890.554L1519.49 901.457C1519.55 897.012 1520.94 892.74 1523.42 889.426C1519.89 891.882 1516.67 894.937 1513.88 898.496C1514.68 895.785 1515.04 892.912 1514.94 890.037C1514.94 888.58 1514.66 887.17 1514.47 885.713L1501.51 905.781C1501.51 901.551 1501.51 897.322 1501.51 893.092C1499.01 896.992 1497.14 901.425 1496.02 906.157C1494.8 906.157 1494.76 903.854 1495.15 902.397C1496.45 897.416 1497.74 892.434 1499.08 887.452C1494.74 892.242 1491.55 898.323 1489.82 905.076C1488.21 901.055 1487.14 896.757 1486.64 892.34C1485.93 896.476 1485.18 900.611 1484.44 904.747C1483.12 899.623 1481.41 894.652 1479.34 889.896C1479.25 895.849 1477.66 901.633 1474.78 906.486C1474.19 907.473 1472.98 908.413 1472.35 907.473C1472.82 904.888 1473.25 902.256 1473.72 899.624C1469 904.211 1463.53 907.586 1457.67 909.541C1461.71 906.238 1464.53 901.182 1465.52 895.442C1460.89 900.892 1455.71 905.629 1450.09 909.541C1452.51 905.727 1453.62 900.953 1453.19 896.194C1449.53 901.849 1445.33 906.975 1440.67 911.468C1440.36 907.79 1441.17 904.101 1442.95 901.081C1440.09 903.689 1437.64 906.869 1435.69 910.481C1436.17 905.728 1437.2 901.077 1438.75 896.664C1434.72 900.7 1431.08 905.272 1427.92 910.293C1427.77 904.718 1429.14 899.237 1431.84 894.69C1427.5 898.787 1423.88 903.885 1421.2 909.682C1421.05 904.227 1422.12 898.823 1424.31 894.032C1419.28 897.745 1417.48 905.64 1413.67 911.186C1413.16 908.579 1413.18 905.864 1413.72 903.266C1414.26 900.668 1415.3 898.26 1416.77 896.241C1413.11 899.057 1409.99 902.774 1407.62 907.144C1407.22 903.699 1406.61 900.291 1405.82 896.946L1398.87 910.622C1398.12 912.126 1396.71 913.865 1395.49 912.972C1395.16 912.649 1394.89 912.24 1394.71 911.776C1394.53 911.313 1394.43 910.806 1394.43 910.293C1394.2 908.695 1393.96 907.097 1393.77 905.593C1392.98 908.225 1392.16 910.857 1391.22 913.395C1389.35 909.422 1388.87 904.724 1389.88 900.329C1386.07 903.904 1383.15 908.669 1381.44 914.1C1380.29 910.947 1379.74 907.528 1379.83 904.089C1378.58 907.614 1377.36 911.139 1376.1 914.711C1374.14 912.784 1374.3 909.118 1374.61 906.063C1374.85 903.995 1375.08 901.974 1375.28 899.953C1370.61 903.055 1368.29 909.682 1366.37 915.839C1365.63 912.028 1365.77 908.05 1366.76 904.324C1364.04 907.59 1361.92 911.495 1360.52 915.792C1359.88 911.056 1360.26 906.204 1361.62 901.692C1357.96 905.942 1355.62 911.564 1354.99 917.624C1354.16 912.447 1352.49 907.514 1350.08 903.102C1350.19 908.616 1348.55 913.974 1345.49 918.094C1345.14 918.611 1344.59 919.081 1344.08 918.799C1343.57 918.517 1343.68 917.342 1344.08 916.591C1344.86 914.476 1345.65 912.314 1346.39 910.199L1338.78 918.283C1339.16 915.434 1339.94 912.684 1341.09 910.152C1338.02 912.741 1335.15 915.668 1332.54 918.893C1332.97 914.745 1334.43 910.849 1336.73 907.708C1333.75 909.768 1330.99 912.244 1328.49 915.087C1328.49 912.361 1328.49 909.635 1328.49 906.956L1317.74 917.531C1317.19 918.094 1316.25 918.565 1315.89 917.86C1315.54 917.155 1315.89 916.638 1316.17 916.168L1321.23 906.768C1316.65 909.272 1312.62 913.021 1309.46 917.718C1309.38 914.689 1310.08 911.705 1311.46 909.165C1309.15 912.072 1307.06 915.218 1305.22 918.564C1305.41 913.987 1305.06 909.399 1304.2 904.935C1302.63 909.665 1300.19 913.908 1297.05 917.343C1296.85 917.629 1296.59 917.864 1296.31 918.034C1296.03 918.203 1295.72 918.303 1295.4 918.329C1296.88 914.957 1297.83 911.296 1298.23 907.52C1294.14 910.534 1290.58 914.477 1287.75 919.128C1288.35 915.078 1289.53 911.182 1291.24 907.614C1288.6 909.571 1286.14 911.856 1283.9 914.429C1284.51 911.751 1284.78 908.978 1284.69 906.204C1282.25 911.994 1278.61 916.944 1274.13 920.585C1273.62 921.008 1272.91 921.431 1272.44 920.961C1273.35 918.173 1274.09 915.316 1274.68 912.408C1271.68 914.506 1268.96 917.119 1266.59 920.162C1265.85 921.102 1264.94 922.183 1263.88 922.089C1264.4 918.384 1265.76 914.92 1267.81 912.079C1265 913.746 1262.56 916.196 1260.7 919.222C1260.08 920.209 1259.41 921.337 1258.43 921.431C1258.19 917.372 1259.03 913.325 1260.82 909.87C1257.63 913.201 1254.97 917.198 1252.97 921.666C1252.97 917.202 1252.7 912.737 1252.58 908.272C1251.47 912.679 1249.91 916.908 1247.95 920.867C1247.78 916.146 1247.4 911.44 1246.81 906.768C1244.25 912.175 1240.95 917.023 1237.04 921.102C1236.72 921.431 1236.29 921.807 1235.9 921.619C1235.51 921.431 1235.39 920.115 1235.66 919.269C1236.49 916.873 1237.31 914.57 1238.1 912.079C1234.96 913.442 1233.15 917.483 1230.8 920.397C1230.48 920.773 1229.97 921.149 1229.66 920.773C1230.63 917.382 1231.78 914.07 1233.11 910.857C1229.54 913.884 1226.41 917.6 1223.85 921.854C1224.23 916.694 1225.88 911.786 1228.6 907.755C1225.04 910.723 1221.96 914.451 1219.53 918.752C1219.44 915.486 1219.14 912.233 1218.63 909.024L1210.97 920.914C1210.7 921.337 1210.31 921.807 1209.87 921.619C1209.44 921.431 1209.4 920.961 1209.32 920.491L1208.46 915.134C1207.36 918.053 1206.04 920.852 1204.54 923.499C1204.54 919.739 1204.22 915.933 1204.1 912.126C1202.35 917.512 1199.05 921.975 1194.8 924.721C1194.38 919.942 1195.26 915.126 1197.31 910.998C1193.68 913.397 1190.89 917.286 1189.46 921.948C1189.15 922.982 1188.64 924.298 1187.78 924.251C1187.54 920.114 1188.28 915.98 1189.9 912.314C1185.25 915.288 1181.61 920.084 1179.57 925.896C1178.99 925.341 1178.53 924.62 1178.25 923.798C1177.96 922.977 1177.85 922.082 1177.92 921.196C1178.1 919.425 1178.54 917.705 1179.22 916.12C1176.74 917.877 1174.87 920.624 1173.92 923.875C1173.92 924.486 1173.49 925.238 1172.98 925.191C1172.47 925.144 1172.23 923.922 1172.39 923.123C1172.9 920.538 1173.45 917.953 1173.96 915.369C1170.58 917.436 1170.03 923.076 1167.48 926.554C1167.42 921.291 1166.43 916.103 1164.58 911.327C1163.84 917.068 1161.74 922.435 1158.53 926.789C1158.17 923.837 1158.69 920.828 1159.99 918.283C1156.85 920.181 1154.35 923.318 1152.92 927.165C1152.81 922.273 1154.07 917.476 1156.49 913.536C1154 915.913 1151.66 918.521 1149.51 921.337C1149.07 921.901 1148.68 922.512 1148.25 923.123C1147.85 919.952 1147.28 916.812 1146.56 913.724C1144.53 917.879 1142.11 921.743 1139.34 925.238C1138.87 925.849 1138.2 926.507 1137.53 926.272C1137.23 926.111 1136.98 925.829 1136.83 925.473C1136.07 923.65 1135.92 921.552 1136.4 919.598C1136.59 918.329 1136.79 917.013 1136.94 915.745C1133.81 918.945 1131.16 922.759 1129.09 927.024C1128.75 923.108 1129.32 919.153 1130.74 915.604C1127.7 918.604 1125.32 922.464 1123.83 926.836C1123.29 926.836 1123.09 925.99 1123.05 925.332C1123 922.318 1123.37 919.315 1124.15 916.45C1121.2 919.109 1118.95 922.731 1117.67 926.883C1117.17 926.004 1116.83 925.016 1116.65 923.975C1116.48 922.934 1116.48 921.861 1116.65 920.82C1117.06 918.761 1117.68 916.771 1118.5 914.899C1116.6 916.018 1115.05 917.827 1114.06 920.068C1113.06 922.31 1112.25 924.673 1111.67 927.118L1107.43 915.275C1107.51 918.878 1106.88 922.453 1105.58 925.708C1105.31 926.272 1104.76 926.836 1104.37 926.46C1104.27 926.342 1104.2 926.202 1104.15 926.048C1104.1 925.895 1104.08 925.731 1104.09 925.567C1104.44 922.222 1104.13 918.827 1103.19 915.651C1101.07 919.121 1098.74 922.39 1096.2 925.426L1097.42 918L1089.88 927.4C1089.73 923.161 1090.72 918.976 1092.71 915.463C1090.21 917.89 1087.91 920.597 1085.84 923.546C1085.06 920.708 1084.05 917.969 1082.82 915.369C1080.5 918.47 1078.15 921.525 1075.75 924.486C1075.33 925.114 1074.79 925.613 1074.18 925.943C1073.87 926.089 1073.53 926.098 1073.21 925.969C1072.89 925.84 1072.63 925.581 1072.45 925.238C1072.3 924.674 1072.3 924.063 1072.45 923.499C1072.81 921.055 1073.2 918.799 1073.55 916.215C1070.59 918.588 1068.17 921.822 1066.53 925.614C1066.47 925.827 1066.38 926.025 1066.26 926.195C1066.14 926.364 1065.99 926.503 1065.82 926.601C1064.96 926.977 1064.53 925.285 1064.68 924.11C1065.07 921.245 1065.9 918.489 1067.12 915.979C1063.64 918.347 1060.74 921.746 1058.68 925.849C1058.21 922.016 1058.56 918.102 1059.7 914.476C1055.69 917.587 1052.72 922.275 1051.3 927.729C1050.37 925.987 1049.79 924.007 1049.62 921.948C1049.45 919.89 1049.69 917.812 1050.32 915.886C1047.7 919.167 1045.82 923.195 1044.86 927.588C1044.04 927.588 1043.53 926.46 1043.41 925.426C1042.85 921.258 1043.3 916.985 1044.7 913.113C1041.4 916.608 1039.05 921.208 1037.95 926.319C1036.86 921.367 1035.2 916.621 1033.01 912.22C1033.49 916.919 1032.92 921.687 1031.36 926.037C1031.19 926.453 1030.93 926.809 1030.61 927.071C1029.83 927.588 1028.85 926.742 1028.57 925.661C1028.35 924.58 1028.35 923.452 1028.57 922.371C1028.66 921.834 1028.65 921.28 1028.55 920.745C1028.45 920.211 1028.26 919.708 1027.98 919.269C1026.29 922.371 1024.49 925.332 1022.61 928.246C1022.54 924.896 1023.1 921.57 1024.25 918.517C1020.79 921.172 1017.86 924.701 1015.66 928.857C1015.27 923.465 1016.68 918.109 1019.58 913.959C1016.68 916.512 1014.11 919.551 1011.93 922.982C1011.58 920.303 1011.18 917.625 1010.63 914.993C1009.61 917.248 1008.55 919.692 1007.49 921.76C1007.22 922.527 1006.74 923.158 1006.12 923.546C1004.82 924.11 1003.65 922.23 1003.49 920.538C1003.54 918.84 1003.37 917.143 1002.98 915.51C1001.32 918.969 1000.16 922.733 999.525 926.648C997.759 925.567 997.877 922.371 998.269 919.927L999.525 912.173C995.247 914.006 993.441 920.209 992.146 925.614C990.954 920.054 991.022 914.213 992.342 908.695C990.427 910.817 988.934 913.426 987.969 916.329C987.005 919.232 986.595 922.356 986.769 925.473C984.898 920.377 982.426 915.629 979.428 911.374C980.088 916.868 979.025 922.459 976.445 927.071C975.538 924.16 975.15 921.055 975.307 917.953C972.233 919.975 969.63 922.883 967.732 926.413C966.904 923.315 967.086 919.957 968.242 917.013C964.384 918.602 961.027 921.571 958.625 925.52C958.006 923.397 957.844 921.122 958.153 918.905C958.461 916.687 959.231 914.598 960.392 912.831C957.878 913.7 955.645 915.465 953.99 917.891C952.335 920.318 951.337 923.29 951.128 926.413L943.67 913.348C944.362 916.746 944.508 920.271 944.102 923.734C942.571 919.645 940.923 915.651 939.078 911.75C939.127 915.775 938.331 919.751 936.762 923.311C936.601 917.992 935.943 912.711 934.799 907.567C933.356 913.844 930.084 919.296 925.575 922.935L930.011 915.134C926.351 917.445 922.859 920.118 919.57 923.123L924.869 914.617C921.785 916.667 918.913 919.143 916.312 921.995V921.666C917.032 919.253 917.155 916.642 916.665 914.147C911.994 916.215 908.815 921.948 904.183 924.11C903.634 924.392 902.81 924.486 902.613 923.781C902.498 923.434 902.498 923.047 902.613 922.7C903.683 918.983 905.305 915.528 907.402 912.502C902.44 915.014 897.769 918.284 893.507 922.23C894.309 918.118 895.879 914.278 898.099 910.998C892.737 913.911 887.847 917.937 883.655 922.888C884.922 918.174 885.285 913.177 884.715 908.272C882.077 913.8 878.342 918.464 873.842 921.854C874.58 918.495 875.919 915.368 877.767 912.69C873.375 914.639 869.238 917.329 865.481 920.679L870.27 909.776C865.618 912.776 861.134 916.136 856.846 919.833C858.307 917.833 859.313 915.416 859.767 912.814C860.221 910.213 860.107 907.516 859.437 904.982C857.022 911.327 852.708 916.358 847.347 919.081C848.287 914.643 850.342 910.657 853.235 907.661C848.658 909.871 844.612 913.408 841.459 917.953C841.969 914.14 843.498 910.628 845.816 907.943C841.518 910.811 837.558 914.351 834.041 918.47C833.968 916.157 834.336 913.854 835.119 911.736C835.901 909.619 837.076 907.743 838.555 906.251C834.777 908.957 831.374 912.35 828.467 916.309C828.859 912.595 828.859 908.837 828.467 905.123C826.009 908.783 823 911.86 819.596 914.194L821.716 906.815C818.182 908.916 815.054 911.878 812.531 915.51C812.971 911.205 814.248 907.084 816.26 903.478C811.229 905.953 807.068 910.437 804.484 916.168H804.17L803.464 901.222C802.244 904.508 800.312 907.343 797.869 909.433C795.426 911.524 792.56 912.794 789.569 913.113C792.602 908.526 794.615 903.093 795.417 897.322L782.818 906.251C781.444 907.238 779.756 908.225 778.382 907.238C779.441 904.736 780.941 902.539 782.778 900.799C776.918 903.333 771.179 906.252 765.586 909.541C767.272 905.601 769.354 901.923 771.788 898.591C767.699 900.754 764.055 903.962 761.111 907.99C762.539 903.497 762.919 898.623 762.21 893.891C761.218 897.214 759.595 900.216 757.471 902.663C755.346 905.109 752.776 906.933 749.964 907.99C751.936 904.953 753.658 901.695 755.106 898.262C751.413 902.019 746.983 904.591 742.231 905.734C745.728 902.651 748.445 898.471 750.082 893.656C746.163 897.926 741.811 901.589 737.129 904.559C738.468 900.501 739.48 896.299 740.151 892.011C739.156 894.233 737.729 896.135 735.99 897.557L728.14 905.076C727.991 903.048 728.333 901.011 729.127 899.21C729.921 897.409 731.132 895.921 732.615 894.925C729.226 896.653 726.065 898.965 723.234 901.786C723.803 899.84 723.925 897.746 723.587 895.724C721.963 898.284 719.985 900.494 717.739 902.256C717.632 897.735 718.598 893.27 720.525 889.379C716.787 891.82 713.607 895.322 711.262 899.577C710.83 900.423 709.967 901.41 709.3 900.799C708.632 900.188 708.946 899.578 709.064 898.873C709.733 894.762 710.718 890.734 712.008 886.841C707.141 888.486 704.746 895.912 699.997 897.886C700.337 892.433 701.677 887.138 703.922 882.376C699.11 886.16 695.202 891.374 692.578 897.51C692.431 892.615 691.429 887.812 689.635 883.41C688.685 888.783 686.416 893.693 683.119 897.51C682.041 889.832 683.444 881.951 687.044 875.468C683.747 877.258 680.827 879.91 678.497 883.228C676.167 886.546 674.487 890.446 673.581 894.643C672.325 893.562 672.482 891.259 672.756 889.426C673.227 886.653 673.659 883.88 674.091 881.108C670.469 884.073 667.645 888.237 665.966 893.092C665.294 888.691 665.109 884.203 665.416 879.745C663.184 884.005 660.229 887.656 656.742 890.46C656.31 890.789 655.682 891.118 655.329 890.46C655.187 890.229 655.118 889.947 655.132 889.661C655.22 888.177 655.64 886.748 656.349 885.525L660.627 876.831L648.067 888.11C647.047 889.003 645.594 889.896 644.692 888.815C646.092 887.401 647.217 885.638 647.99 883.649C648.763 881.661 649.164 879.494 649.166 877.301C646.497 882.167 642.648 885.939 638.136 888.11C637.43 888.439 636.449 888.58 636.135 887.734C635.981 887.25 635.981 886.715 636.135 886.23C637.198 883.361 638.514 880.635 640.06 878.1C636.109 880.624 632.625 884.077 629.815 888.251H629.266C628.818 883.168 629.814 878.052 632.092 873.729C629.203 876.735 626.819 880.371 625.066 884.444C621.141 872.883 635.703 837.87 638.176 828.047C639.628 822.361 640.963 815.593 638.176 810.846C635.86 806.992 631.66 806.147 628.167 803.844C624.436 801.129 621.378 797.272 619.308 792.671C617.238 788.069 616.231 782.889 616.391 777.666C616.741 767.052 620.012 756.874 625.694 748.716C628.519 753.443 632.454 757.058 636.998 759.102C638.065 754.893 638.21 750.425 637.42 746.129C636.629 741.833 634.93 737.853 632.484 734.57C631.646 733.793 630.905 732.875 630.286 731.844C629.747 730.564 629.401 729.179 629.266 727.755C627.565 716.519 622.252 706.529 614.468 699.932C601.711 688.23 585.068 686.256 569.407 683.295C558.568 681.89 547.851 679.358 537.378 675.729C516.692 667.363 495.653 666.094 482.426 661.63C480 661.002 477.713 659.769 475.714 658.011C474.152 656.37 472.826 654.433 471.788 652.277C469.29 647.808 467.371 642.912 466.097 637.755C464.056 628.355 464.566 612.987 468.962 604.575C470.925 600.768 472.103 601.097 475.871 600.721C478.056 600.209 480.09 599.02 481.771 597.271C483.452 595.523 484.72 593.277 485.448 590.758C487.254 585.776 487.96 580.277 489.609 575.248C480.659 572.569 472.259 585.118 463.506 584.648C466.428 579.156 470.69 574.873 475.714 572.381C490.59 565.332 509.156 561.666 523.522 553.113C531.581 548.072 538.187 540.245 542.48 530.648C544.017 530.288 545.536 529.833 547.034 529.285C553.319 526.632 558.91 522.045 563.245 515.985C567.758 510.063 575.412 498.267 575.02 496.34C574.627 494.413 558.848 520.308 545.581 523.504C553.785 501.556 553.785 477.353 551.783 478.058C550.723 478.434 548.054 491.311 547.073 498.314C544.631 515.129 536.995 530.229 525.681 540.611C524.229 541.927 522.737 543.102 521.206 544.23C526.491 535.935 529.837 526.105 530.901 515.75C532.55 501.65 528.35 472.7 526.976 473.452C525.602 474.204 526.23 487.551 526.27 498.455C520.343 489.572 516.221 470.726 515.122 471.149C514.023 471.572 514.259 477.635 514.808 480.831C515.178 482.56 515.65 484.257 516.221 485.906C518.893 493.221 522.237 500.157 526.191 506.585C526.173 510.97 525.818 515.343 525.131 519.65C524.083 524.74 522.596 529.685 520.696 534.408C518.323 540.523 514.93 545.993 510.726 550.481C503.286 553.83 495.578 556.255 487.724 557.718C491.65 550.481 494.123 542.068 491.65 537.18C490.551 535.16 490.865 547.614 479.639 559.504C476.728 560.196 473.887 561.251 471.16 562.653C464.684 566.641 459.251 572.691 455.46 580.136C453.837 578.316 452.12 576.621 450.318 575.06C447.402 572.977 444.125 571.722 440.74 571.395C441.158 565.83 440.787 560.221 439.641 554.805C438.93 551.763 437.956 548.817 436.737 546.016C436.344 528.345 442.271 518.992 440.662 519.744C437.051 521.483 434.342 529.708 433.126 538.543C429.615 531.256 426.71 523.574 424.451 515.609C424.334 508.868 425.088 502.146 426.688 495.682C427.887 490.651 429.396 485.734 431.202 480.971C432.832 477.217 434.682 473.605 436.737 470.162C441.947 468.141 446.92 465.329 451.535 461.797C452.637 460.971 453.675 460.027 454.636 458.977C456.441 456.956 459.385 452.585 458.992 451.316C458.6 450.047 447.727 461.468 440.466 463.865C445.529 455.499 452.241 445.065 451.731 444.126C451.221 443.186 435.716 461.656 429.946 473.828C425.651 482.833 422.889 492.769 421.821 503.06C421.547 501.039 421.311 499.019 421.154 496.904C420.064 480.024 423.005 463.122 429.632 448.167C432.473 442.09 434.788 435.68 436.541 429.039C435.834 427.019 424.569 444.878 418.132 467.342C413.461 454.042 416.993 424.481 415.894 425.515C414.795 426.549 413.225 441.447 412.833 449.389C412.299 457.008 413.101 464.676 415.188 471.901C415.514 472.863 415.881 473.804 416.287 474.721C413.536 485.685 413.091 497.293 414.991 508.512C418.563 525.901 426.767 542.773 431.124 559.457C432.107 563.209 432.532 567.138 432.38 571.066H431.163C429.733 571.162 428.307 570.789 427.042 569.985C426.069 569.062 425.233 567.95 424.569 566.695C422.726 563.799 420.405 561.387 417.752 559.609C415.098 557.83 412.168 556.723 409.143 556.355C409.192 567.278 412.458 577.83 418.367 586.152C419.327 587.264 420.077 588.61 420.565 590.099C420.926 592.24 420.706 594.464 419.937 596.444C417.176 607.457 413.481 618.103 408.907 628.214C407.788 630.048 407.097 632.206 406.906 634.465C406.976 635.887 407.382 637.256 408.077 638.413C408.772 639.57 409.727 640.466 410.831 640.998C412.999 641.982 415.361 642.178 417.621 641.562C418.633 641.25 419.685 641.17 420.722 641.327C423.274 641.985 424.647 645.556 425.118 648.705C428.175 662.176 430.07 675.988 430.771 689.922C430.789 698.626 431.712 707.293 433.518 715.724C437.443 730.669 448.081 740.679 456.323 752.006L456.677 752.523C456.677 755.53 456.284 758.538 455.97 761.452C455.951 761.89 455.951 762.33 455.97 762.768C454.204 777.017 451.779 791.138 448.708 805.066C446.864 813.525 444.783 821.891 442.585 830.256C440.246 839.761 435.985 848.429 430.182 855.494C430.849 851.076 431.556 846.658 432.223 842.241C429.275 846.569 425.989 850.55 422.41 854.131C423.436 848.524 425.227 843.157 427.709 838.246C423.432 842.332 419.489 846.896 415.934 851.875C418.388 846.835 419.458 840.999 418.995 835.191C416.184 842.177 411.86 848.133 406.474 852.439C410.176 848.105 412.601 842.447 413.382 836.319C409.835 843.877 404.095 849.613 397.25 852.439C401.596 848.275 404.673 842.509 406.003 836.037C403.342 841.404 399.349 845.642 394.581 848.162C397.353 843.68 398.815 838.23 398.741 832.653C394.816 840.126 389.164 848.632 382.138 846.752C384.052 841.367 386.447 836.246 389.282 831.478C383.585 834.548 378.295 838.601 373.581 843.51C375.89 837.657 379.084 832.367 383.002 827.906C377.622 830.505 373.005 834.953 369.735 840.69L368.478 824.147C367.707 829.578 365.254 834.461 361.609 837.823C362.377 834.059 363.707 830.493 365.535 827.295C361.152 829.641 357.162 832.922 353.759 836.977C356.446 832.786 358.86 828.356 360.981 823.724C355.763 826.063 351.167 830.04 347.675 835.238C349.64 829.92 351.318 824.457 352.699 818.883C348.185 822.166 344.475 826.82 341.944 832.371C340.688 826.596 339.007 820.966 336.92 815.546C336.82 821.461 335.47 827.25 332.995 832.371C331.952 824.193 332.779 815.828 335.389 808.167C329.188 812.867 326.048 821.609 323.3 829.927C322.148 823.753 321.989 817.374 322.829 811.128C319.741 815.649 317.373 820.811 315.842 826.356C312.506 820.935 310.88 814.276 311.25 807.557C309.446 812.407 308.42 817.62 308.227 822.925C306.054 818.405 305.329 813.093 306.186 807.98C304.612 812.315 303.593 816.91 303.164 821.609C301.591 819.243 300.467 816.496 299.871 813.558C299.274 810.62 299.219 807.562 299.71 804.596C297.294 808.226 295.506 812.396 294.45 816.862C290.878 813.807 287.856 809.201 284.559 805.724C280.634 801.635 280.634 798.58 280.869 792.188C280.869 789.415 281.105 786.596 281.262 783.776C283.538 788.476 287.974 797.875 290.682 797.875C292.487 797.875 293.744 795.384 293.783 793.175C293.638 790.94 293.336 788.723 292.88 786.549C292.775 783.709 293.167 780.874 294.032 778.227C294.898 775.58 296.217 773.18 297.904 771.18C301.044 766.998 304.812 763.614 307.678 759.149C314.939 747.823 314.939 732.596 317.059 719.06C320.465 701.552 325.631 684.604 332.446 668.585C337.569 655.075 338.944 639.956 336.371 625.442C335.232 618.909 333.309 612.611 332.092 606.126C330.99 599.579 330.243 592.955 329.855 586.293C328.874 573.227 328.481 559.504 327.461 546.016C327.916 543.255 328.492 540.526 329.188 537.838C330.312 534.168 331.243 530.416 331.974 526.606C332.642 521.499 332.642 516.298 331.974 511.191C331.482 505.917 330.695 500.689 329.619 495.541C333.845 494.214 337.764 491.755 341.081 488.35C343.624 485.945 345.68 482.882 347.094 479.39C348.508 475.898 349.243 472.069 349.245 468.188C342.729 474.674 333.741 475.097 325.694 478.105C326.31 470.598 328.83 463.496 332.917 457.755C344.692 441.588 361.413 426.502 372.168 409.254C378.037 399.345 381.365 387.602 381.745 375.462C383.126 374.185 384.437 372.804 385.671 371.327C390.775 364.83 394.421 356.891 396.269 348.251C398.349 339.65 401.136 323.389 399.84 321.791C398.545 320.193 393.521 355.3 381.824 366.674C381.117 340.026 371.462 316.293 369.813 318.219C368.95 319.3 371.422 333.541 373.228 341.013C377.558 359.262 376.09 378.784 369.107 395.812C368.226 397.977 367.243 400.079 366.163 402.11C368.061 390.79 367.438 379.071 364.357 368.131C360.432 353.186 344.731 327.572 343.632 328.888C342.533 330.204 348.578 343.222 352.935 353.844C343.593 348.768 332.014 332.883 331.111 334.011C330.208 335.139 332.838 340.872 334.683 343.645C335.72 345.138 336.863 346.522 338.098 347.781C343.62 353.288 349.652 358.019 356.075 361.88C357.82 366.195 359.226 370.695 360.275 375.321C361.261 380.979 361.761 386.743 361.766 392.522C361.886 400.051 360.738 407.531 358.391 414.517C352.451 422.371 345.877 429.503 338.765 435.807C339.943 426.408 338.765 416.538 334.33 413.342C332.445 412.026 337.745 424.058 331.425 442.669C328.915 445.065 326.626 447.775 324.595 450.752C320.368 457.522 317.592 465.429 316.509 473.781C310.601 471.123 304.088 471.123 298.179 473.781H297.747C296.525 465.394 293.615 457.49 289.269 450.752C287.188 447.68 284.832 444.891 282.243 442.434C275.923 423.635 281.222 411.791 279.338 413.107C274.824 416.303 273.725 425.984 274.864 435.572C267.758 429.257 261.185 422.127 255.238 414.282C252.898 407.292 251.738 399.817 251.823 392.287C251.862 386.508 252.375 380.746 253.354 375.086C254.402 370.46 255.808 365.96 257.554 361.645C263.971 357.773 270.002 353.043 275.531 347.546C276.766 346.287 277.908 344.903 278.946 343.41C280.79 340.637 283.46 334.951 282.478 333.776C281.497 332.601 270.036 348.533 260.694 353.608C265.051 342.987 270.86 329.734 269.957 328.653C269.054 327.572 253.354 352.951 249.272 367.896C246.199 378.837 245.563 390.549 247.427 401.875C246.406 399.854 245.386 397.739 244.483 395.577C237.565 378.519 236.167 358.998 240.558 340.778C242.363 333.306 244.836 319.065 243.973 317.984C242.285 316.058 232.668 339.791 231.962 366.439C220.186 355.065 215.162 320.005 213.945 321.556C212.728 323.107 215.437 339.415 217.517 348.016C219.365 356.656 223.011 364.595 228.115 371.091C229.331 372.591 230.643 373.974 232.04 375.227C232.42 387.366 235.749 399.11 241.617 409.018C252.333 426.267 269.094 441.353 280.869 457.52C284.221 462.117 286.497 467.695 287.463 473.687C284.284 472.653 281.026 472.042 277.847 470.961C275.452 470.44 273.171 469.338 271.146 467.721C269.121 466.104 267.394 464.008 266.071 461.562C265.612 466.117 266 470.739 267.208 475.094C268.416 479.449 270.414 483.43 273.058 486.752C275.717 490.133 278.87 492.904 282.361 494.93C281.938 497.585 281.649 500.269 281.497 502.966C280.245 521.254 277.296 539.319 272.705 556.825C271.873 560.602 270.729 564.27 269.29 567.776C262.264 583.473 245.739 588.079 232.982 593.436L201.11 607.019C185.998 613.457 169.709 621.118 161.191 637.802C157.619 644.804 155.343 653.452 149.69 657.823C152.382 659.639 155.438 660.535 158.526 660.41C161.614 660.286 164.613 659.147 167.197 657.118C164.959 658.904 169.826 677.139 170.297 679.958C171.833 687.647 172.336 695.579 171.789 703.457C171.078 709.005 169.507 714.345 167.157 719.201C163.288 727.675 158.043 735.137 151.732 741.149C148.955 743.135 146.782 746.132 145.53 749.703C145.189 751.602 145.123 753.557 145.333 755.483C145.805 762.58 146.472 769.583 147.375 776.773C148.053 779.595 148.266 782.548 148.003 785.468C147.492 788.194 144.077 793.786 144.077 787.724C144.077 786.126 144.666 784.481 144.077 783.024L140.152 792.423V777.243C139.863 780.203 138.976 783.034 137.567 785.491C136.158 787.948 134.27 789.956 132.066 791.342C134.091 787.284 134.998 782.564 134.657 777.854C133.678 782.951 131.127 787.417 127.513 790.356C129.881 785.49 130.651 779.743 129.672 774.235C126.302 779.945 122.18 784.961 117.465 789.087C118.76 784.387 119.977 779.452 121.115 774.611C116.667 778.471 112.827 783.245 109.772 788.711C109.459 783.112 109.923 777.49 111.145 772.073C106.389 776.523 102.794 782.508 100.783 789.322C98.3102 784.199 95.6803 779.123 93.2467 774.094C95.0916 774.094 96.9756 774.094 98.8596 773.671C82.6095 752.053 45.7916 683.718 38.2946 664.167C40.7213 666.892 43.8492 668.549 47.1655 668.867C41.9837 660.73 37.7086 651.819 34.4479 642.361C37.8856 645.682 42.1237 647.594 46.5374 647.812C32.1216 621.009 20.2716 592.348 11.211 562.371C14.8483 566.22 19.5071 568.401 24.3604 568.528L10.9756 540.047C14.3474 544.297 18.5195 547.52 23.1435 549.447C8.77747 528.016 4.42059 516.878 -3.23346 492.533L3.71399 496.058C0.830139 490.485 -1.20337 484.342 -2.2915 477.917L4.61682 480.22C-14.2632 454.512 -15.2445 425.092 -22.035 389.938C-20.9064 392.053 -19.355 393.797 -17.5211 395.013C-23.2862 383.591 -26.7531 370.719 -27.6479 357.415C-28.6948 372.862 -31.7405 388.019 -36.6759 402.345C-35.3413 400.982 -35.1451 402.345 -33.7712 399.901C-35.868 411.685 -39.2049 423.102 -43.7019 433.88C-42.6813 433.88 -42.1711 433.175 -40.4833 431.436C-42.1653 447.672 -45.8699 463.513 -51.4737 478.434C-48.7653 478.434 -47.8625 476.225 -45.3897 473.734C-47.29 479.283 -50.2471 484.224 -54.025 488.162C-52.2772 487.728 -50.6539 486.756 -49.3148 485.342C-49.3148 490.042 -62.6996 532.575 -75.2601 565.52C-73.3891 565.555 -71.5548 564.897 -70.0087 563.635C-68.4627 562.372 -67.2806 560.569 -66.6247 558.47C-69.601 573.29 -74.7294 587.369 -81.7758 600.063C-76.289 598.308 -71.3672 594.625 -67.6453 589.488C-71.2839 605.474 -76.2819 620.97 -82.5609 635.734C-88.4879 620.648 -93.1588 607.912 -95.3961 600.439C-93.0738 603.969 -89.6952 606.278 -85.9757 606.878C-91.5659 595.284 -96.0429 582.971 -99.3213 570.173C-96.0574 574.527 -91.5154 577.204 -86.643 577.645C-101.048 545.358 -115.689 497.233 -124.403 460.763C-119.418 465.932 -116.553 468.94 -110.39 469.175L-124.835 430.966C-121.501 436.484 -117.042 440.885 -111.882 443.75C-127.151 414.423 -131.782 399.196 -139.947 365.828L-132.528 370.528C-135.686 362.686 -137.842 354.321 -138.926 345.713L-131.586 348.862C-151.644 313.614 -152.703 273.384 -159.965 225.212C-158.846 227.974 -157.19 230.375 -155.137 232.214C-161.415 215.949 -165.064 198.408 -165.892 180.517C-165.892 192.971 -171.112 229.441 -175.509 241.99C-174.095 240.157 -173.899 241.99 -172.447 238.7C-174.618 254.603 -178.156 270.195 -183.006 285.227C-181.906 285.227 -181.357 284.193 -179.591 281.843C-181.323 303.752 -185.277 325.326 -191.366 346.089C-188.461 346.089 -187.441 343.081 -184.89 339.65C-186.761 346.942 -189.89 353.683 -194.074 359.436C-192.142 358.741 -190.414 357.405 -189.089 355.582C-189.089 361.974 -203.299 420.204 -216.566 465.321C-214.36 465.136 -212.267 464.088 -210.607 462.339C-208.948 460.589 -207.814 458.236 -207.381 455.64C-210.417 475.458 -215.838 494.645 -223.474 512.601C-217.287 509.85 -212.012 504.771 -208.441 498.126C-211.877 517.604 -216.548 536.74 -222.414 555.368C-226.81 543.854 -230.264 534.22 -232.148 527.734C-229.251 532.16 -225.027 535.059 -220.373 535.818C-227.459 521.406 -233.16 506.082 -237.369 490.136C-233.212 495.654 -227.428 499.024 -221.237 499.535C-239.371 458.883 -257.78 398.35 -268.731 352.434C-262.49 358.966 -259.075 362.773 -251.107 363.055C-257.152 347.045 -263.223 331.018 -269.32 314.977C-265.115 321.937 -259.476 327.475 -252.952 331.05C-272.224 294.157 -278.033 274.982 -288.278 233.06L-278.858 239.264C-282.8 229.389 -285.511 218.875 -286.904 208.057L-277.641 211.958C-302.919 167.687 -304.214 117.071 -313.36 56.4439C-311.98 59.9504 -309.921 63.0118 -307.354 65.3734C-315.715 46.1985 -319.13 22.4178 -320.896 0.470003C-320.896 16.0731 -327.49 61.9897 -332.986 77.7808C-331.219 75.4779 -330.945 77.7807 -329.06 73.598C-331.778 93.6147 -336.224 113.239 -342.327 132.157C-340.954 132.157 -340.286 130.841 -338.049 127.927C-340.187 155.47 -345.117 182.599 -352.729 208.716C-349.079 208.716 -347.862 204.956 -344.604 200.632C-346.951 209.811 -350.883 218.297 -356.144 225.541C-353.703 224.737 -351.508 223.105 -349.825 220.841C-350.139 228.924 -367.723 302.193 -384.562 358.919C-381.793 358.682 -379.164 357.37 -377.074 355.181C-374.985 352.993 -373.548 350.048 -372.983 346.794C-376.794 371.705 -383.617 395.817 -393.237 418.371C-385.468 414.932 -378.843 408.566 -374.357 400.23C-383.934 455.875 -401.009 500.898 -420.752 554.287C-411.675 550.135 -403.434 543.728 -396.573 535.489C-399.831 539.295 -401.833 551.703 -403.678 557.107C-406.294 564.69 -409.042 572.178 -411.92 579.572C-417.455 594.047 -423.421 608.287 -429.466 622.434C-441.241 650.068 -451.447 677.75 -464.007 705.008C-460.206 701.221 -456.089 697.914 -451.721 695.139C-454.862 707.212 -458.8 718.967 -463.497 730.293C-488.618 731.374 -514.524 732.878 -542 734.993C-532.933 877.959 -527.045 966.126 -518.017 1109.14L-365.172 1137.34C416.915 1203.13 2420.94 1176.02 2635.69 1165.21C2755.95 1159 2894.75 1128.03 2928.15 1036.48C2940.43 1002.13 2935.45 964.763 2928.15 928.763ZM284.323 709.238C285.737 703.517 287.783 698.048 290.407 692.977C290.995 692.909 291.586 692.909 292.174 692.977C294.646 693.588 294.96 695.327 295.667 698.241C297.045 705.201 297.743 712.33 297.747 719.483C297.943 726.439 298.179 733.583 298.414 740.397C298.553 742.516 298.473 744.646 298.179 746.742C297.674 749.117 296.838 751.373 295.706 753.415C292.943 758.872 289.62 763.893 285.815 768.361C284.166 770.335 282.4 772.215 280.869 774.329C281.183 762.768 280.594 724.653 284.323 709.238ZM-382.953 719.107V720.047C-383.385 718.731 -383.856 717.415 -384.327 716.099L-382.443 714.972C-382.653 716.278 -382.81 717.595 -382.914 718.919L-382.953 719.107ZM-368.822 722.021C-369.293 721.554 -369.739 721.052 -370.157 720.517L-369.136 719.812C-369.136 720.094 -368.744 720.376 -368.548 720.658C-368.606 721.055 -368.685 721.448 -368.783 721.833L-368.822 722.021ZM65.5352 769.395L65.2996 768.831H66.0062L65.5352 769.395ZM84.0226 778.794C83.486 779.446 82.8145 779.916 82.0765 780.155C81.3386 780.395 80.5609 780.395 79.8227 780.157C79.0259 778.982 78.5101 777.571 78.3304 776.073C78.1507 774.575 78.3138 773.046 78.8022 771.651L84.6899 772.637C84.6899 773.389 84.6899 774.188 84.6899 774.893C84.8489 776.202 84.6122 777.535 84.0226 778.653V778.794ZM203.975 802.716C203.975 803.327 203.74 803.985 203.583 804.643L199.658 791.013C198.007 793.722 196.686 796.697 195.732 799.849L197.381 780.486C197.255 783.492 196.503 786.413 195.194 788.982C193.884 791.551 192.059 793.687 189.884 795.196C192.444 791.081 194.335 786.425 195.458 781.473C191.073 787.193 186.116 792.244 180.699 796.512C182.29 794.411 183.506 791.944 184.276 789.261C185.045 786.579 185.35 783.737 185.174 780.909C183.162 786.232 180.039 790.845 176.107 794.303C177.602 790.096 178.064 785.467 177.441 780.956L172.927 790.356C172.927 787.771 172.927 785.186 172.927 782.601C171.554 784.763 170.14 786.925 168.727 789.04L167.982 781.473C167.51 783.96 166.799 786.373 165.862 788.664C165.862 789.087 165.391 789.604 164.998 789.698C164.658 789.689 164.333 789.52 164.096 789.227C156.834 782.695 157.58 771.227 157.894 761.029C158.208 758.625 158.995 756.344 160.189 754.375C161.383 752.406 162.951 750.805 164.763 749.703C168.628 746.502 172.229 742.866 175.518 738.846C178.812 734.401 182.31 730.181 185.998 726.204C189.213 723.32 192.568 720.667 196.047 718.261L196.557 717.838C194.659 724.309 192.088 730.468 188.903 736.168C187.633 737.946 186.84 740.14 186.626 742.465C186.852 744.731 187.645 746.861 188.903 748.575C192.801 755.373 195.942 762.751 198.245 770.523C201.659 780.768 205.82 791.295 203.975 802.575V802.716ZM244.287 808.403V808.825C244.166 803.696 244.562 798.568 245.464 793.551C242.618 797.772 240.389 802.539 238.87 807.651C238.269 806.34 237.953 804.869 237.953 803.374C237.953 801.879 238.269 800.407 238.87 799.097C240.059 796.439 240.755 793.506 240.911 790.497C237.041 794.963 234.097 800.451 232.315 806.523C231.655 801.922 229.833 797.674 227.094 794.35C228.135 798.403 227.94 802.767 226.545 806.664C225.383 802.526 222.957 799.068 219.754 796.982C213.396 792.94 213.396 784.81 212.14 776.632C211.276 771.04 209.824 765.635 208.528 760.23C206.952 755.872 206.853 750.95 208.254 746.507C209.497 744.242 211.181 742.371 213.16 741.055C224.936 731.421 237.064 720.893 244.09 705.619C245.299 702.977 246.335 700.227 247.191 697.395C250.038 698.543 252.573 700.589 254.531 703.316C255.906 705.78 256.903 708.517 257.475 711.4C261.632 728.478 264.587 745.944 266.307 763.614C267.798 779.123 270.507 792.376 267.327 808.262C267.092 809.342 266.581 810.705 265.679 810.611C264.776 810.517 264.423 809.201 264.305 808.073C263.795 803.274 263.637 798.431 263.834 793.598C260.495 797.899 258.142 803.161 257.004 808.872L258.535 792.611C255.734 797.31 253.709 802.606 252.569 808.214C251.511 801.016 249.854 793.963 247.623 787.16C248.34 794.437 247.176 801.802 244.287 808.262V808.403ZM497.812 791.06C498.99 780.862 502.797 769.63 510.687 766.622C514.894 765.503 519.27 765.681 523.404 767.139C541.224 771.463 549.938 775.786 564.501 780.157C566.828 789.664 571.044 798.356 576.786 805.489C580.28 810.188 583.812 815.217 587.463 819.87C588.735 821.207 589.661 822.952 590.132 824.899C590.322 826.078 590.322 827.291 590.132 828.47C588.483 838.481 582.281 845.483 578.356 854.131C574.431 862.778 566.11 869.029 562.106 878.147C563.947 873.953 565.207 869.43 565.835 864.752C562.486 869.125 559.465 873.843 556.807 878.852C557.553 873.917 558.26 868.982 559.005 864.047C555.388 868.222 552.447 873.161 550.331 878.617C550.575 871.867 551.605 865.192 553.392 858.784C549.646 862.182 546.543 866.49 544.286 871.426L546.877 858.361C542.843 862.93 539.485 868.286 536.946 874.199C539.121 869.419 540.204 864.037 540.086 858.596C538.107 865.355 534.031 870.942 528.703 874.199C532.747 869.371 535.483 863.197 536.553 856.481C532.817 863.961 527.274 869.91 520.657 873.541L529.253 854.319C524.813 858.396 520.688 862.941 516.928 867.901C518.659 863.715 520.192 859.416 521.52 855.024L511.982 869.828C511.935 864.722 512.531 859.636 513.748 854.742C511.753 859.574 508.947 863.862 505.505 867.337C504.972 864.858 504.877 862.272 505.229 859.747C505.58 857.221 506.37 854.812 507.547 852.674C504.29 855.638 501.889 859.746 500.678 864.423C498.166 852.721 498.597 840.032 497.891 828.047C496.805 815.754 496.778 803.36 497.812 791.06ZM459.542 814.559C461.662 808.825 463.899 803.139 466.254 797.499C467.117 795.478 474.104 782.413 473.712 780.956C474.93 783.712 475.98 786.571 476.852 789.509C483.139 810.21 486.238 832.105 485.998 854.131C486.014 856.241 485.681 858.333 485.016 860.288C484.59 861.314 483.965 862.204 483.194 862.882C482.422 863.561 481.526 864.009 480.581 864.188C482.136 859.731 482.506 854.808 481.641 850.089C479.937 854.985 477.693 859.585 474.968 863.765C475.385 857.495 475.2 851.187 474.418 844.966C473.634 851.21 471.389 857.06 467.942 861.839C468.143 855.84 469.001 849.899 470.493 844.167C466.905 848.646 464.22 854.047 462.643 859.959C463.153 855.259 463.703 850.559 464.213 845.53C460.863 849.284 458.888 854.47 458.718 859.959C456.867 856.342 455.652 852.313 455.146 848.115C454.043 851.866 453.615 855.854 453.89 859.818C445.922 846.047 454.832 827.295 459.542 814.371V814.559ZM622.907 840.831C621.886 850.165 620.205 859.378 617.883 868.371C616.744 872.695 616.98 875.28 613.604 877.771L614.075 876.314C612.558 877.342 611.09 878.472 609.679 879.697C608.177 880.269 606.708 880.959 605.283 881.765C605.925 879.027 606.947 876.438 608.305 874.105C604.172 877.03 600.759 881.214 598.414 886.23C599.199 880.82 599.079 875.276 598.061 869.922C597.503 873.677 596.02 877.147 593.803 879.885C591.585 882.624 588.735 884.506 585.618 885.29C587.031 881.624 590.956 879.885 591.741 875.891C587.454 879.045 582.671 881.109 577.689 881.953C579.556 878.461 581.936 875.404 584.715 872.93C581.004 874.58 577.473 876.757 574.196 879.416C579.455 872.31 584.258 864.737 588.562 856.763C592.783 849.834 597.67 843.524 603.124 837.964C604.244 837.031 605.192 835.832 605.908 834.441C606.623 833.05 607.092 831.498 607.285 829.88C607.173 828.232 606.772 826.63 606.107 825.181C604.537 821.139 602.928 817.003 601.436 812.773C605.581 816.861 610.006 820.524 614.664 823.724C618.056 825.444 620.835 828.539 622.514 832.465C623.203 835.176 623.338 838.045 622.907 840.831ZM2164.51 651.243C2164.28 650.397 2164.08 649.504 2163.88 648.658L2165.3 647.577L2165.77 648.047L2164.51 651.243ZM2302.28 553.347C2301.97 551.562 2301.69 549.776 2301.42 547.99L2301.97 547.567C2302.37 548.42 2302.86 549.21 2303.42 549.917L2302.28 553.347ZM2488.81 533.28C2488.26 531.823 2487.79 530.366 2487.24 528.909C2489.09 527.658 2490.77 526.073 2492.22 524.209C2491.28 526.982 2490.14 529.99 2488.77 533.374L2488.81 533.28Z" fill="url(#paint0_linear_113_2531)"/>
<defs>
<linearGradient id="paint0_linear_113_2531" x1="1196.73" y1="1179.82" x2="1196.73" y2="0.141051" gradientUnits="userSpaceOnUse">
<stop offset="0.05" stop-color="#063347"/>
<stop offset="0.39" stop-color="#0B414E"/>
<stop offset="0.99" stop-color="#196461"/>
</linearGradient>
</defs>
</svg>
