<svg width="1703" height="236" viewBox="0 0 1703 236" fill="none" xmlns="http://www.w3.org/2000/svg">
<path d="M39.3127 73.7192C61.3477 72.8746 82.1735 62.317 103.306 56.0976L178.951 33.773C189.086 30.7785 199.355 27.7839 209.892 27.5152C224.038 27.1697 237.801 31.815 251.256 36.3836L407.555 89.6132C429.897 97.2915 452.757 104.97 476.251 104.413C500.935 103.895 524.525 94.3929 547.5 85.0063L654.604 41.2977C665.871 36.6907 677.388 32.0454 689.48 31.3351C702.456 30.5673 715.22 34.3681 727.715 38.1496L912.997 94.2394C934.629 100.785 956.972 107.408 979.333 104.682C995.936 102.666 1011.52 95.6023 1026.84 88.6151L1200.6 9.37527C1209.66 5.229 1218.97 1.04436 1228.86 0.391704C1238.74 -0.260949 1248.63 2.75278 1258.28 5.49776C1389.38 42.699 1532.97 32.8132 1655.82 93.2988C1672.13 101.342 1688.58 111.189 1698.35 127.006C1708.12 142.824 1708.93 166.07 1695.68 178.835C1686.49 187.722 1673.15 189.68 1660.69 191.216C1603.11 198.338 1547.04 205.382 1491.21 219.165C1429.9 234.329 1357.5 229.895 1294.66 232.391C1161.69 237.684 1028.55 236.281 895.723 228.187C877.117 227.061 858.524 225.781 839.944 224.348C642.838 209.509 446.212 179.91 248.626 184.037C165.496 185.784 80.8107 193.347 0.463501 171.06" fill="url(#paint0_linear_3_3310)"/>
<defs>
<linearGradient id="paint0_linear_3_3310" x1="853.054" y1="235.539" x2="853.054" y2="0.314922" gradientUnits="userSpaceOnUse">
<stop offset="0.36" stop-color="#FFFFDB"/>
<stop offset="0.47" stop-color="#FBFEDB"/>
<stop offset="0.6" stop-color="#EDFCDD"/>
<stop offset="0.73" stop-color="#D8F7DF"/>
<stop offset="0.86" stop-color="#B9F2E1"/>
<stop offset="1" stop-color="#92EAE5"/>
</linearGradient>
</defs>
</svg>
