<svg width="980" height="248" viewBox="0 0 980 248" fill="none" xmlns="http://www.w3.org/2000/svg">
<path d="M0.714635 137.537C1.82931 120.396 5.74617 103.493 12.3413 87.361C36.417 30.7215 107.485 -12.1912 173.507 3.13478C194.155 8.18746 213.367 17.0829 229.876 29.2348C246.385 41.3867 259.817 56.519 269.286 73.6343C280.502 93.7913 288.689 118.813 311.419 126.942C352.542 141.835 389.142 86.5947 433.33 89.0935C462.117 90.6927 481.669 115.747 499.539 136.604C517.409 157.461 543.167 174.586 570.121 165.157C578.495 162.225 585.411 156.628 593.299 152.696C619.132 139.736 662.76 142.468 686.761 158.06C710.762 173.653 726.165 216.699 751.474 225.028C779.064 234.091 818.206 221.097 842.431 221.363C895.256 221.93 933.687 226.994 979.296 247.817H142.178C51.2588 247.817 20.6033 218.565 5.2008 182.649C-0.855519 168.622 -0.481675 152.796 0.714635 137.537Z" fill="url(#paint0_linear_7_23)"/>
<defs>
<linearGradient id="paint0_linear_7_23" x1="489.669" y1="247.917" x2="489.669" y2="0.00295537" gradientUnits="userSpaceOnUse">
<stop stop-color="#FFFFDD" stop-opacity="0.5"/>
<stop offset="1" stop-color="white"/>
</linearGradient>
</defs>
</svg>
