<svg id="visual" viewBox="0 0 900 600" width="900" height="600" xmlns="http://www.w3.org/2000/svg" xmlns:xlink="http://www.w3.org/1999/xlink" version="1.1"><rect x="0" y="0" width="900" height="600" fill="#8d501c"></rect><path d="M0 378L21.5 364.5C43 351 86 324 128.8 311.5C171.7 299 214.3 301 257.2 310.3C300 319.7 343 336.3 385.8 335C428.7 333.7 471.3 314.3 514.2 305.8C557 297.3 600 299.7 642.8 302C685.7 304.3 728.3 306.7 771.2 304.2C814 301.7 857 294.3 878.5 290.7L900 287L900 601L878.5 601C857 601 814 601 771.2 601C728.3 601 685.7 601 642.8 601C600 601 557 601 514.2 601C471.3 601 428.7 601 385.8 601C343 601 300 601 257.2 601C214.3 601 171.7 601 128.8 601C86 601 43 601 21.5 601L0 601Z" fill="#a35718"></path><path d="M0 367L21.5 362.2C43 357.3 86 347.7 128.8 355.5C171.7 363.3 214.3 388.7 257.2 396.8C300 405 343 396 385.8 392.2C428.7 388.3 471.3 389.7 514.2 388.8C557 388 600 385 642.8 373.3C685.7 361.7 728.3 341.3 771.2 342C814 342.7 857 364.3 878.5 375.2L900 386L900 601L878.5 601C857 601 814 601 771.2 601C728.3 601 685.7 601 642.8 601C600 601 557 601 514.2 601C471.3 601 428.7 601 385.8 601C343 601 300 601 257.2 601C214.3 601 171.7 601 128.8 601C86 601 43 601 21.5 601L0 601Z" fill="#814714"></path><path d="M0 439L21.5 424.5C43 410 86 381 128.8 379C171.7 377 214.3 402 257.2 418.8C300 435.7 343 444.3 385.8 441.5C428.7 438.7 471.3 424.3 514.2 418.7C557 413 600 416 642.8 414C685.7 412 728.3 405 771.2 402.5C814 400 857 402 878.5 403L900 404L900 601L878.5 601C857 601 814 601 771.2 601C728.3 601 685.7 601 642.8 601C600 601 557 601 514.2 601C471.3 601 428.7 601 385.8 601C343 601 300 601 257.2 601C214.3 601 171.7 601 128.8 601C86 601 43 601 21.5 601L0 601Z" fill="#603811"></path><path d="M0 458L21.5 459.3C43 460.7 86 463.3 128.8 462.7C171.7 462 214.3 458 257.2 449C300 440 343 426 385.8 432C428.7 438 471.3 464 514.2 463.5C557 463 600 436 642.8 435.5C685.7 435 728.3 461 771.2 469.7C814 478.3 857 469.7 878.5 465.3L900 461L900 601L878.5 601C857 601 814 601 771.2 601C728.3 601 685.7 601 642.8 601C600 601 557 601 514.2 601C471.3 601 428.7 601 385.8 601C343 601 300 601 257.2 601C214.3 601 171.7 601 128.8 601C86 601 43 601 21.5 601L0 601Z" fill="#42280e"></path><path d="M0 500L21.5 503.3C43 506.7 86 513.3 128.8 518.2C171.7 523 214.3 526 257.2 524.8C300 523.7 343 518.3 385.8 517.2C428.7 516 471.3 519 514.2 513C557 507 600 492 642.8 482.2C685.7 472.3 728.3 467.7 771.2 467.5C814 467.3 857 471.7 878.5 473.8L900 476L900 601L878.5 601C857 601 814 601 771.2 601C728.3 601 685.7 601 642.8 601C600 601 557 601 514.2 601C471.3 601 428.7 601 385.8 601C343 601 300 601 257.2 601C214.3 601 171.7 601 128.8 601C86 601 43 601 21.5 601L0 601Z" fill="#281908"></path><path d="M0 518L21.5 526.2C43 534.3 86 550.7 128.8 558C171.7 565.3 214.3 563.7 257.2 556.8C300 550 343 538 385.8 535.7C428.7 533.3 471.3 540.7 514.2 538C557 535.3 600 522.7 642.8 524C685.7 525.3 728.3 540.7 771.2 541.7C814 542.7 857 529.3 878.5 522.7L900 516L900 601L878.5 601C857 601 814 601 771.2 601C728.3 601 685.7 601 642.8 601C600 601 557 601 514.2 601C471.3 601 428.7 601 385.8 601C343 601 300 601 257.2 601C214.3 601 171.7 601 128.8 601C86 601 43 601 21.5 601L0 601Z" fill="#0b0500"></path></svg>