<svg width="1736" height="243" viewBox="0 0 1736 243" fill="none" xmlns="http://www.w3.org/2000/svg">
<path d="M0.6604 107.479C24.3461 87.6882 51.4101 70.8728 81.3915 65.9395C111.373 61.0062 142.026 68.3198 171.912 74.4624C238.65 88.2065 307.02 95.8079 375.064 92.3143C438.405 89.0511 492.149 67.072 552.726 50.4677C559.828 48.5482 567.083 46.6286 574.396 47.1853C586.316 48.2219 596.585 55.9193 606.681 62.5418C659.12 97.4204 721.52 111.337 782.405 124.621C805.841 129.746 829.795 134.89 853.577 131.973C872.675 129.631 890.814 122.202 908.53 114.466C952.807 95.1457 996.064 73.567 1038.13 49.8151C1064.16 35.1112 1105.6 6.75919 1134.52 1.46119C1147.81 -0.976663 1161.09 4.4941 1173.68 9.52337C1352.19 80.7969 1552.77 81.2 1726.47 164.49C1745.17 173.454 1764.59 184.492 1774 203.553C1748.41 214.111 1720.51 216.76 1693 218.334C1500.14 229.237 1306.85 190.827 1114.22 203.688C1002.41 211.155 892.023 235.821 780.101 240.985C562.726 251.005 345.946 187.237 129.089 205.953" fill="url(#paint0_linear_3_3312)"/>
<defs>
<linearGradient id="paint0_linear_3_3312" x1="887.301" y1="242.06" x2="887.301" y2="0.86612" gradientUnits="userSpaceOnUse">
<stop stop-color="#FFFFF3"/>
<stop offset="0.26" stop-color="#FBFFF2"/>
<stop offset="0.54" stop-color="#EDFEF0"/>
<stop offset="0.83" stop-color="#D8FEED"/>
<stop offset="1" stop-color="#C8FDEA"/>
</linearGradient>
</defs>
</svg>
