<svg width="1495" height="407" viewBox="0 0 1495 407" fill="none" xmlns="http://www.w3.org/2000/svg">
<path d="M1133.3 224.424C1117.94 224.578 1102.59 224.981 1087.23 225.634C1061.28 226.728 1035.2 228.513 1009.42 225.25C990.724 222.889 972.451 217.898 954.235 212.926C922.085 204.154 884.983 185.246 875.539 186.916C866.095 188.586 805.211 217.399 789.741 217.399C774.27 217.399 702.33 188.605 673.903 181.196C599.084 161.424 523.458 143.668 452.862 110.613C422.381 96.3315 392.074 80.3799 359.194 74.1413C339.673 70.4749 319.02 70.1486 301.4 60.7043C290.133 54.6385 280.92 45.2326 271.035 36.9401C252.398 21.2754 230.881 9.40136 207.694 1.98472C204.184 0.544643 200.349 0.0867799 196.599 0.660215C192.261 1.69678 188.922 5.20961 185.87 8.56885C106.156 95.6404 26.9795 187.396 -33.137 290.592C-36.2848 295.967 -39.4135 302.743 -36.4384 308.213C-34.1159 312.456 -29.0678 313.972 -24.5187 315.066C73.8903 338.331 177.194 326.065 276.486 344.8C328.003 354.533 377.755 372.461 428.869 384.286C509.485 402.944 592.654 406.169 675.247 406.687C901.507 408.091 1127.46 389.773 1350.54 351.941C1372.82 348.102 1395.9 340.424 1418.31 338.907C1437.51 337.602 1454.44 342.746 1473 332.477C1488.53 323.915 1499.56 303.683 1492.31 286.964C1489.03 279.42 1482.71 273.834 1475.88 269.438C1457.03 257.172 1434.67 252.412 1412.77 248.323C1320.59 231.412 1227.01 223.409 1133.3 224.424Z" fill="url(#paint0_linear_3_3313)"/>
<defs>
<linearGradient id="paint0_linear_3_3313" x1="703.405" y1="444.157" x2="764.144" y2="99.6155" gradientUnits="userSpaceOnUse">
<stop offset="0.37" stop-color="#F4FFF1"/>
<stop offset="0.51" stop-color="#EBFFEE"/>
<stop offset="0.74" stop-color="#D4FFE5"/>
<stop offset="0.89" stop-color="#C2FFDE"/>
</linearGradient>
</defs>
</svg>
