<svg width="348" height="652" viewBox="0 0 348 652" fill="none" xmlns="http://www.w3.org/2000/svg">
<path d="M159.163 0.123386C161.055 19.2079 164.921 39.8554 174.215 56.5132C171.374 54.5543 169.058 51.9271 167.47 48.8629C177.629 101.551 179.068 145.56 207.158 184.017L196.835 180.603C198.417 190.057 201.441 199.213 205.801 207.749L195.437 202.485C206.829 238.926 213.327 255.543 234.714 287.666C227.581 284.616 221.34 279.804 216.576 273.681L236.811 315.428C227.928 315.182 224.144 311.932 217.193 306.257C229.532 346.112 249.807 398.759 270.001 434.09C263.212 433.658 256.824 430.728 252.069 425.863C256.758 439.799 263.095 453.124 270.947 465.554C265.819 464.95 261.107 462.44 257.745 458.521C268.89 487.765 323.549 590.138 347.814 622.466C332.885 624.729 312.28 619.053 297.392 616.297C298.338 619.752 308.825 636.286 317.297 640.646C293.279 640.646 279.09 625.88 269.219 619.752C269.425 625.469 279.008 647.433 282.709 651.217C249.807 654.26 157.312 636.698 149.58 630.405C146.249 639.906 148.593 646.404 148.593 651.217C148.593 651.217 113.84 635.505 105.327 625.263C99.6339 628.625 93.7105 631.58 87.6012 634.106L91.1381 620.451C63.6239 634.106 29.6528 642.332 0 634.888C5.45346 624.886 10.0223 614.426 13.6543 603.629C8.82045 606.099 4.2462 609.048 0 612.431C13.9833 588.74 25.1699 564.678 38.3718 540.699C45.1167 528.36 51.7382 516.021 57.9073 503.394C61.0878 496.978 64.1312 490.479 67.0375 483.898C69.135 479.21 71.1502 468.433 74.9751 465.102C67.2035 472.265 58.0507 477.766 48.0778 481.266C70.0398 434.871 89.2051 395.756 99.6515 347.387C94.5128 354.761 87.1478 360.296 78.6354 363.181C89.2791 343.709 96.8797 322.723 101.173 300.951C100.455 303.862 98.8123 306.462 96.4913 308.361C94.1703 310.259 91.2962 311.354 88.3004 311.48C107.013 262.124 126.59 198.495 126.919 191.503C125.019 193.502 122.597 194.927 119.927 195.616C125.705 189.407 130.081 182.029 132.759 173.981C129.099 177.724 127.741 181.015 123.711 181.015C135.638 145.807 137.612 131.658 140.162 110.764C137.653 113.314 136.913 114.425 135.391 114.425C142.149 98.0704 147.087 81.0221 150.115 63.5876C148.099 67.3716 147.812 65.1917 146.002 67.2071C152.089 53.4695 159.41 13.7375 159.41 0" fill="url(#paint0_linear_3_3482)"/>
<defs>
<linearGradient id="paint0_linear_3_3482" x1="173.886" y1="0.123391" x2="173.886" y2="651.628" gradientUnits="userSpaceOnUse">
<stop offset="0.03" stop-color="#3EC5A4"/>
<stop offset="1" stop-color="#188182"/>
</linearGradient>
</defs>
</svg>
